<svg height="90" width="90" xmlns="http://www.w3.org/2000/svg"><g fill="none" fill-rule="evenodd" transform="translate(1 1)"><circle cx="44" cy="44" fill="#f67575" fill-opacity=".527" r="44" stroke="#fff"/><circle cx="44" cy="44" fill="#f67575" fill-opacity=".66" r="40"/><circle cx="43" cy="44" fill="#f67575" r="33" stroke="#fff"/><path d="M43 12v5.5m0-5.5v2.75" stroke="#fff" stroke-linecap="square"/><text fill="#fff" font-family="Roboto-Regular, Roboto" font-size="7" letter-spacing="1.16"><tspan x="40.448" y="25">0</tspan></text><text fill="#fff" font-family="Roboto-Regular, Roboto" font-size="7" letter-spacing="1.16"><tspan x="38.397" y="67">30</tspan></text><text fill="#fff" font-family="Roboto-Regular, Roboto" font-size="7" letter-spacing="1.16"><tspan x="59.399" y="46">15</tspan></text><text fill="#fff" font-family="Roboto-Regular, Roboto" font-size="7" letter-spacing="1.16"><tspan x="17.899" y="46">45</tspan></text><path d="M75 44h-5.5M43 76v-5.5M11 44h5.5m29.845-31.825l-.288 2.735m3.596-2.21l-.572 2.69m3.808-1.824l-.85 2.616m3.977-1.415l-1.119 2.512M59 16.287l-1.375 2.382m4.185-.557l-1.617 2.225m4.219-.117l-1.84 2.043m4.209.325l-2.044 1.84m4.152.763l-2.225 1.616M70.713 28l-2.382 1.375m3.903 1.61l-2.512 1.118m3.712 2.009l-2.616.85m3.483 2.385l-2.69.571m3.214 2.737l-2.735.288M75 44h-2.75m2.575 3.345l-2.735-.288m2.211 3.595l-2.69-.571m1.822 3.808l-2.615-.85m1.415 3.976l-2.512-1.118M70.713 60l-2.381-1.375m.556 4.183l-2.225-1.616m.117 4.219l-2.043-1.84m-.326 4.21l-1.84-2.044m-.763 4.152l-1.616-2.225M59 71.713l-1.375-2.381m-1.61 3.901l-1.119-2.512m-2.008 3.712l-.85-2.615m-2.385 3.484l-.572-2.69m-2.736 3.213l-.288-2.735M43 76v-2.75m-3.345 2.575l.288-2.735m-3.596 2.212l.572-2.69m-3.807 1.821l.85-2.615m-3.977 1.415l1.119-2.512M27 71.713l1.375-2.381m-4.183.557l1.616-2.225m-4.219.117l1.84-2.044m-4.209-.326l2.043-1.84m-4.151-.763l2.225-1.616M15.287 60l2.381-1.375m-3.901-1.61l2.512-1.118m-3.712-2.008l2.615-.85m-3.483-2.387l2.69-.571m-3.214-2.736l2.735-.288M11 44h2.75m-2.575-3.345l2.735.288m-2.211-3.596l2.69.571m-1.823-3.806l2.616.85m-1.416-3.977l2.512 1.118M15.287 28l2.382 1.375m-.558-4.184l2.225 1.616m-.117-4.219l2.044 1.84m.325-4.208l1.84 2.043m.762-4.151l1.617 2.225M27 16.287l1.375 2.382m1.609-3.902l1.119 2.512m2.008-3.713l.85 2.616m2.386-3.482l.572 2.69m2.736-3.215l.288 2.735" stroke="#fff" stroke-linecap="square"/></g></svg>