<svg height="80" width="80" xmlns="http://www.w3.org/2000/svg"><path d="M17.428 7.722c.345.155.406.235.5.315a103.232 103.232 0 0 0 4.93 4.502s-.592.552 1.118-.438a32.878 32.878 0 0 1 8.59-3.405l.125-.029c.183-2.287.29-4.581.32-6.877 0 0 .225-1.239 1.56-1.422a40.39 40.39 0 0 1 11.043.025s1.28.189 1.38 1.397c.029 2.232.13 4.45.303 6.67 0 0-.81-.03 1.1.48a32.884 32.884 0 0 1 8.481 3.666l.109.068a102.303 102.303 0 0 0 5.09-4.637s.953-.863 3.11.883a40.059 40.059 0 0 1 6.569 6.752c.423.553.855 1.488.208 2.253-1.558 1.6-3.055 3.24-4.5 4.93 0 0-.553-.592.436 1.117a32.852 32.852 0 0 1 3.405 8.591l.03.124c2.287.185 4.581.29 6.877.321 0 0 1.208-.091 1.47 1.92a40.438 40.438 0 0 1-.025 10.323c-.092.694-.447 1.657-1.445 1.741-.331.004-.66.01-.991.016-1.897.044-3.79.14-5.68.287 0 0 .03-.81-.48 1.1a32.866 32.866 0 0 1-3.666 8.481l-.067.109a102.574 102.574 0 0 0 4.636 5.09s.864.953-.883 3.11a39.876 39.876 0 0 1-7.041 6.789c-1.442 1.084-2.978-1.025-4.666-2.554-.976-.884-2.387-2.094-2.387-2.094-.148.092-.298.182-.446.272a32.8 32.8 0 0 1-9.102 3.705l-.125.03a102.48 102.48 0 0 0-.32 6.877s-.225 1.239-1.56 1.422a40.428 40.428 0 0 1-11.043-.025s-1.28-.19-1.38-1.397c-.005-.33-.01-.66-.017-.99a104.47 104.47 0 0 0-.287-5.68s.81.03-1.1-.48a32.862 32.862 0 0 1-8.48-3.667l-.11-.067a102.274 102.274 0 0 0-5.09 4.637s-1.034.716-2.107-.098a40.407 40.407 0 0 1-7.791-7.827s-.771-1.038.01-1.964c1.56-1.599 3.056-3.24 4.503-4.93 0 0 .552.593-.438-1.117a32.925 32.925 0 0 1-3.405-8.59l-.028-.125a102.51 102.51 0 0 0-6.878-.32S.508 46.928.218 44.168a39.884 39.884 0 0 1 .179-9.78c.25-1.774 2.824-1.381 5.105-1.494 1.315-.064 3.169-.207 3.169-.207.039-.17.08-.339.122-.508a32.793 32.793 0 0 1 3.817-9.055l.067-.109a101.947 101.947 0 0 0-4.637-5.09s-.716-1.036.098-2.108a40.384 40.384 0 0 1 7.682-7.682s.547-.714 1.607-.413zm22.406-4.917a39.23 39.23 0 0 0-3.875.22l-.163.018c-.009.357-.02.713-.032 1.07-.07 2.007.066 4.066-.399 6.03-.29 1.227-2.352 1.288-3.89 1.755a29.708 29.708 0 0 0-7.792 3.687s-.82.522-1.674-.092a105.73 105.73 0 0 1-5.125-4.563l-.039-.037a37.966 37.966 0 0 0-5.74 5.69l-.209.26c1.637 1.713 3.48 3.32 4.716 5.324.662 1.073-.749 2.567-1.51 3.992a29.693 29.693 0 0 0-2.903 8.116s-.21.95-1.249 1.12c-2.284.206-4.566.338-6.85.397h-.053a37.903 37.903 0 0 0-.036 8.083l.036.332c2.369.054 4.808-.113 7.1.43 1.197.284 1.276 2.281 1.702 3.719a29.733 29.733 0 0 0 3.738 7.963s.524.821-.092 1.675a106.188 106.188 0 0 1-4.562 5.125l-.037.038a37.966 37.966 0 0 0 5.69 5.741l.259.208c1.714-1.636 3.32-3.48 5.325-4.716 1.074-.661 2.57.751 3.992 1.511a29.746 29.746 0 0 0 8.115 2.903s.951.21 1.12 1.25c.206 2.274.34 4.56.398 6.85v.053c2.682.299 5.394.311 8.083.036l.33-.036c.056-2.37-.111-4.81.432-7.101.29-1.227 2.348-1.286 3.89-1.755a29.728 29.728 0 0 0 7.792-3.685s.82-.524 1.674.09a105.282 105.282 0 0 1 5.125 4.565l.038.035a37.908 37.908 0 0 0 5.741-5.689l.209-.26c-1.637-1.713-3.48-3.32-4.717-5.325-.662-1.073.75-2.566 1.511-3.992a29.73 29.73 0 0 0 2.903-8.115s.21-.95 1.249-1.12a105.58 105.58 0 0 1 6.85-.397l.052-.001a38.04 38.04 0 0 0 .037-8.083l-.037-.331c-2.368-.054-4.807.112-7.1-.43-1.26-.3-1.315-2.477-1.807-4.064a29.358 29.358 0 0 0-3.633-7.618s-.523-.82.092-1.676a106.524 106.524 0 0 1 4.563-5.125l.037-.038a38 38 0 0 0-5.69-5.74l-.26-.209c-1.714 1.637-3.32 3.48-5.324 4.716-1.047.646-2.51-.707-3.833-1.425a29.319 29.319 0 0 0-8.274-2.988s-.951-.21-1.12-1.249a106.635 106.635 0 0 1-.397-6.85s-2.172-.297-4.377-.292zm.277 20.352c7.702.074 14.96 5.988 16.432 13.657 1.44 7.5-2.93 15.717-9.987 18.704-7.847 3.321-17.986-.443-21.734-8.217-4.79-9.936 2.601-23.869 14.855-24.141.144-.002.29-.004.434-.003zm-.2 2.807c-7.935.076-14.942 7.886-13.808 16 .93 6.644 7.235 12.114 13.99 12.071 8.2-.052 15.37-8.517 13.66-16.863-1.283-6.262-7.234-11.229-13.842-11.208z" fill="#fff" fill-rule="evenodd"/></svg>