<svg height="90" viewBox="0 0 90 90" width="90" xmlns="http://www.w3.org/2000/svg"><g fill="none" fill-rule="evenodd" transform="translate(1 1)"><circle cx="44" cy="44" fill="#f67575" fill-opacity=".527" r="44" stroke="#fff"/><circle cx="44" cy="44" fill="#f67575" fill-opacity=".66" r="40"/><circle cx="43" cy="44" fill="#f67575" r="33" stroke="#fff"/><path d="m43 12v5.5m0-5.5v2.75" stroke="#fff" stroke-linecap="square"/><text fill="#fff" font-family="Roboto-Regular, Roboto" font-size="7" letter-spacing="1.16"><tspan x="40.448" y="25">0</tspan></text><text fill="#fff" font-family="Roboto-Regular, Roboto" font-size="7" letter-spacing="1.16"><tspan x="38.397" y="67">30</tspan></text><text fill="#fff" font-family="Roboto-Regular, Roboto" font-size="7" letter-spacing="1.16"><tspan x="59.399" y="46">15</tspan></text><text fill="#fff" font-family="Roboto-Regular, Roboto" font-size="7" letter-spacing="1.16"><tspan x="17.899" y="46">45</tspan></text><g stroke="#fff" stroke-linecap="square"><path d="m72 41v5.5" transform="matrix(0 1 -1 0 116 -28)"/><path d="m43 70v5.5" transform="matrix(-1 0 0 -1 86 146)"/><path d="m14 41v5.5" transform="matrix(0 -1 1 0 -30 58)"/><path d="m46.1881181 12.1670822v2.75" transform="matrix(.9945219 .10452846 -.10452846 .9945219 1.681613 -4.753091)"/><path d="m49.3413066 12.6664982v2.75" transform="matrix(.9781476 .20791169 -.20791169 .9781476 4.023496 -9.94901)"/><path d="m52.4250183 13.4927763v2.75" transform="matrix(.95105652 .30901699 -.30901699 .95105652 7.198954 -15.466406)"/><path d="m55.4054676 14.6368635v2.75" transform="matrix(.91354546 .40673664 -.40673664 .91354546 11.353523 -21.140127)"/><path d="m58.25 16.0862252v2.75" transform="matrix(.8660254 .5 -.5 .8660254 16.59702 -26.768923)"/><path d="m60.9274502 17.8249817v2.75" transform="matrix(.80901699 .58778525 -.58778525 .80901699 22.994972 -32.121245)"/><path d="m63.4084835 19.8340828v2.75" transform="matrix(.74314483 .66913061 -.66913061 .74314483 30.561905 -36.948485)"/><path d="m65.6659172 22.0915165v2.75" transform="matrix(.66913061 .74314483 -.74314483 .66913061 39.259142 -40.993477)"/><path d="m67.6750183 24.5725498v2.75" transform="matrix(.58778525 .80901699 -.80901699 .58778525 48.990133 -44.00255)"/><path d="m69.4137748 27.25v2.75" transform="matrix(.5 .8660254 -.8660254 .5 59.60523 -45.739287)"/><path d="m70.8631365 30.0945324v2.75" transform="matrix(.40673664 .91354546 -.91354546 .40673664 70.90389 -45.992416)"/><path d="m72.0072237 33.0749817v2.75" transform="matrix(.30901699 .95105652 -.95105652 .30901699 82.638392 -44.591989)"/><path d="m72.8335018 36.1586934v2.75" transform="matrix(.20791169 .9781476 -.9781476 .20791169 94.52702 -41.413149)"/><path d="m73.3329178 39.3118819v2.75" transform="matrix(.10452846 .9945219 -.9945219 .10452846 106.256042 -36.38529)"/><path d="m73.5 42.5v2.75" transform="matrix(0 1 -1 0 117.5 -29.5)"/><path d="m73.3329178 45.6881181v2.75" transform="matrix(-.10452846 .9945219 -.9945219 -.10452846 127.927885 -20.810785)"/><path d="m72.8335018 48.8413066v2.75" transform="matrix(-.20791169 .9781476 -.9781476 -.20791169 137.217968 -10.43492)"/><path d="m72.0072237 51.9250183v2.75" transform="matrix(-.30901699 .95105652 -.95105652 -.30901699 145.068581 1.451506)"/><path d="m70.8631365 54.9054676v2.75" transform="matrix(-.40673664 .91354546 -.91354546 -.40673664 151.21411 14.610409)"/><path d="m69.4137748 57.75v2.75" transform="matrix(-.5 .8660254 -.8660254 -.5 155.433005 28.760713)"/><path d="m67.6750183 60.4274502v2.75" transform="matrix(-.58778525 .80901699 -.80901699 -.58778525 157.553362 43.576552)"/><path d="m65.6659172 62.9084835v2.75" transform="matrix(-.66913061 .74314483 -.74314483 -.66913061 157.469602 58.706016)"/><path d="m63.4084835 65.1659172v2.75" transform="matrix(-.74314483 .66913061 -.66913061 -.74314483 155.137588 73.780259)"/><path d="m60.9274502 67.1750183v2.75" transform="matrix(-.80901699 .58778525 -.58778525 -.80901699 150.584131 88.42225)"/><path d="m58.25 68.9137748v2.75" transform="matrix(-.8660254 .5 -.5 -.8660254 143.90298 102.269313)"/><path d="m55.4054676 70.3631365v2.75" transform="matrix(-.91354546 .40673664 -.40673664 -.91354546 135.249301 114.977874)"/><path d="m52.4250183 71.5072237v2.75" transform="matrix(-.95105652 .30901699 -.30901699 -.95105652 124.844542 126.240567)"/><path d="m49.3413066 72.3335018v2.75" transform="matrix(-.9781476 .20791169 -.20791169 -.9781476 112.954733 135.795979)"/><path d="m46.1881181 72.8329178v2.75" transform="matrix(-.9945219 .10452846 -.10452846 -.9945219 99.892892 143.430835)"/><path d="m43 73v2.75" transform="matrix(-1 0 0 -1 86 149)"/><path d="m39.8118819 72.8329178v2.75" transform="matrix(-.9945219 -.10452846 .10452846 -.9945219 71.635991 152.420283)"/><path d="m36.6586934 72.3335018v2.75" transform="matrix(-.9781476 -.20791169 .20791169 -.9781476 57.165961 153.676385)"/><path d="m33.5749817 71.5072237v2.75" transform="matrix(-.95105652 -.30901699 .30901699 -.95105652 42.946319 152.816029)"/><path d="m30.5945324 70.3631365v2.75" transform="matrix(-.91354546 -.40673664 .40673664 -.91354546 29.315608 149.957225)"/><path d="m27.75 68.9137748v2.75" transform="matrix(-.8660254 -.5 .5 -.8660254 16.575205 145.269313)"/><path d="m25.0725498 67.1750183v2.75" transform="matrix(-.80901699 -.58778525 .58778525 -.80901699 4.991331 138.971782)"/><path d="m22.5915165 65.1659172v2.75" transform="matrix(-.74314483 -.66913061 .66913061 -.74314483 -5.227133 131.325492)"/><path d="m20.3340828 62.9084835v2.75" transform="matrix(-.66913061 -.74314483 .74314483 -.66913061 -13.92437 122.616471)"/><path d="m18.3249817 60.4274502v2.75" transform="matrix(-.58778525 -.80901699 .80901699 -.58778525 -21.003831 113.152014)"/><path d="m16.5862252 57.75v2.75" transform="matrix(-.5 -.8660254 .8660254 -.5 -26.433005 103.238897)"/><path d="m15.1368635 54.9054676v2.75" transform="matrix(-.40673664 -.91354546 .91354546 -.40673664 -30.234759 93.175318)"/><path d="m13.9927763 51.9250183v2.75" transform="matrix(-.30901699 -.95105652 .95105652 -.30901699 -32.49312 83.242367)"/><path d="m13.1664982 48.8413066v2.75" transform="matrix(-.20791169 -.9781476 .9781476 -.20791169 -33.337563 73.685774)"/><path d="m12.6670822 45.6881181v2.75" transform="matrix(-.10452846 -.9945219 .9945219 -.10452846 -32.938437 64.718098)"/><path d="m12.5 42.5v2.75" transform="matrix(0 -1 1 0 -31.5 56.5)"/><path d="m12.6670822 39.3118819v2.75" transform="matrix(.10452846 -.9945219 .9945219 .10452846 -29.24549 49.143593)"/><path d="m13.1664982 36.1586934v2.75" transform="matrix(.20791169 -.9781476 .9781476 .20791169 -26.407426 42.707545)"/><path d="m13.9927763 33.0749817v2.75" transform="matrix(.30901699 -.95105652 .95105652 .30901699 -23.213854 37.198871)"/><path d="m15.1368635 30.0945324v2.75" transform="matrix(.40673664 -.91354546 .91354546 .40673664 -19.883241 32.572493)"/><path d="m16.5862252 27.25v2.75" transform="matrix(.5 -.8660254 .8660254 .5 -16.60523 28.738897)"/><path d="m18.3249817 24.5725498v2.75" transform="matrix(.58778525 -.80901699 .80901699 .58778525 -13.539665 25.572912)"/><path d="m20.3340828 22.0915165v2.75" transform="matrix(.66913061 -.74314483 .74314483 .66913061 -10.804374 22.916978)"/><path d="m22.5915165 19.8340828v2.75" transform="matrix(.74314483 -.66913061 .66913061 .74314483 -8.47236 20.596747)"/><path d="m25.0725498 17.8249817v2.75" transform="matrix(.80901699 -.58778525 .58778525 .80901699 -6.570433 18.428286)"/><path d="m27.75 16.0862252v2.75" transform="matrix(.8660254 -.5 .5 .8660254 -5.075205 16.231077)"/><path d="m30.5945324 14.6368635v2.75" transform="matrix(.91354546 -.40673664 .40673664 .91354546 -3.918432 13.839225)"/><path d="m33.5749817 13.4927763v2.75" transform="matrix(.95105652 -.30901699 .30901699 .95105652 -2.989814 11.109055)"/><path d="m36.6586934 12.6664982v2.75" transform="matrix(.9781476 -.20791169 .20791169 .9781476 -2.14419 7.931396)"/><path d="m39.8118819 12.1670822v2.75" transform="matrix(.9945219 -.10452846 .10452846 .9945219 -1.210496 4.236356)"/></g></g></svg>