<svg height="80" viewBox="0 0 80 80" width="80" xmlns="http://www.w3.org/2000/svg"><path d="m424.4275 7.72234145c.345978.15439539.406331.23510207.500369.31440515 1.594446 1.55307726 3.238017 3.0542215 4.930712 4.5020292 0 0-.593005.5523144 1.117235-.4379215 2.689223-1.5341287 5.581262-2.67946177 8.589796-3.4044183l.124917-.02947549c.183866-2.28715716.289835-4.58133229.320012-6.87691101 0 0 .225271-1.23867211 1.560058-1.42184118.540371-.07439051 1.082146-.13685046 1.625324-.18878346 3.13275-.29966741 6.298482-.22106612 9.417898.21404816 0 0 1.279346.18808165 1.380402 1.39657648.028773 2.23171517.12983 4.450798.30317 6.66917903 0 0-.809855-.02947548 1.098988.4807311 2.993797.81829557 5.853553 2.05837127 8.481722 3.66618867l.108776.0680744c1.748136-1.4878101 3.445042-3.03527303 5.089314-4.6374761 0 0 .95372-.86321058 3.110292.88356271 2.445706 1.98257719 4.659122 4.25710199 6.56937 6.75199109.423173.5523144.85547 1.4878101.208428 2.2527691-1.557953 1.5993959-3.054851 3.239496-4.501221 4.9308273 0 0-.552302-.5930186.437209 1.1165594 1.534795 2.6899888 2.678697 5.5771826 3.40504 8.5906998l.028773.1242182c2.287805.1845726 4.581927.290544 6.877451.3207213 0 0 1.208467-.0912336 1.469529 1.920819.42949 3.4261741.428788 6.9042811-.02386 10.3220336-.091934.6940775-.447035 1.6569432-1.445669 1.7411589-.330538.0042108-.660375.0098252-.990914.0161413-1.896211.0442133-3.789616.1396577-5.67881.2870351 0 0 .028773-.809874-.480018 1.0990145-.816872 2.9854454-2.049199 5.8375493-3.666804 8.4819212l-.067371.1087786c1.487074 1.7474751 3.0345 3.4444208 4.636665 5.0894335 0 0 .863892.9537424-.883542 3.1103653-2.060428 2.5426113-4.411393 4.8129254-7.040966 6.7891864-1.441457 1.0842767-2.977655-1.024624-4.66614-2.5538401-.975475-.8842646-2.386756-2.094163-2.386756-2.094163-.148076.0919355-.297555.1824673-.446332.2722974-2.8373 1.6885241-5.899871 2.9335124-9.101395 3.7047875l-.124917.0294755c-.184568 2.2878589-.289835 4.5820341-.320012 6.8776128 0 0-.225271 1.2386721-1.560058 1.4218412-.540371.0736887-1.082146.1368504-1.625324.1887834-3.132749.2996675-6.298482.2203644-9.417898-.2140481 0 0-1.279346-.1887835-1.380402-1.3965765-.004211-.3305465-.009825-.6603912-.016843-.9909377-.04351-1.8962561-.138953-3.789705-.286327-5.6789431 0 0 .809855.0294755-1.09969-.4800293-2.991691-.8189974-5.841623-2.0520551-8.48102-3.6668905l-.108776-.0673726c-1.748136 1.4871084-3.445042 3.0345712-5.090016 4.6367743 0 0-1.035126.7158332-2.108149-.0982516-2.934847-2.2268026-5.563016-4.8767889-7.79117-7.8264427 0 0-.770555-1.0379581.011229-1.9636286 1.558655-1.5993959 3.055553-3.239496 4.501923-4.9308273 0 0 .552302.5930186-.437209-1.1165594-1.532689-2.6864798-2.679399-5.5820951-3.40504-8.589998l-.028773-.12492c-2.287805-.1845726-4.581927-.290544-6.878153-.3200195 0 0-1.284961-.0638635-1.574094-2.824032-.341066-3.2584445-.28352-6.5225034.178252-9.7802462.251238-1.7734416 2.823966-1.3811369 5.105455-1.4934245 1.315137-.0645653 3.16854-.2070301 3.16854-.2070301.039299-.169835.080705-.3389681.122811-.5081012.810557-3.1938792 2.096921-6.2466971 3.816284-9.0552896l.067371-.1087786c-1.487073-1.7481769-3.0345-3.4451226-4.637367-5.0901353 0 0-.715816-1.0358527.098249-2.1081989 2.189556-2.8857901 4.787548-5.4754219 7.681692-7.68187239 0 0 .547389-.71372777 1.60778-.41265676zm22.406455-4.91749317c-1.293382.00912337-2.586764.08281208-3.875234.22036433l-.162813.01824673c-.008421.35651299-.019649.71302598-.03158 1.06953897-.07088 2.00714007.065968 4.06621313-.399313 6.03054359-.290537 1.2267415-2.352369 1.2877979-3.890672 1.754493-2.759402.8372441-5.38336 2.0885486-7.79117 3.6865409 0 0-.820382.5228389-1.674449-.0919355-1.754452-1.4625454-3.464691-2.9854454-5.125104-4.5630855l-.038598-.0364935c-2.107448 1.6843134-4.034538 3.5932018-5.740567 5.6894701l-.208429.259665c1.637255 1.7137888 3.479429 3.3202027 4.715967 5.3252373.662481 1.073048-.7488 2.5664725-1.510232 3.9918227-1.357946 2.5398041-2.330614 5.2838313-2.902565 8.1155831 0 0-.210535.9502334-1.24917 1.1200684-2.284296.2063283-4.565785.3382662-6.850783.3972172l-.052634.0007018c-.29966 2.682269-.312292 5.3947153-.035791 8.0825986l.035791.3312483c2.369212.0547402 4.8079-.1122875 7.100617.4302017 1.196537.2842279 1.275838 2.2815428 1.701819 3.7188235.836522 2.8177159 2.107447 5.5063011 3.738386 7.9632931 0 0 .523528.8211028-.091934 1.67519-1.464616 1.7558967-2.985375 3.4647729-4.562978 5.1252252l-.036493.037897c1.684274 2.1081989 3.59382 4.0346323 5.689337 5.7407013l.259659.2084338c1.71445-1.6365911 3.320826-3.4795107 5.325112-4.7160774 1.073724-.6617947 2.570623.7509231 3.991729 1.5109695 2.540446 1.3572758 5.283707 2.3299668 8.115392 2.9026333 0 0 .950913.2098374 1.120042 1.249199.205622 2.2745249.33896 4.5609802.397208 6.8502428l.001403.0533366c2.680803.2989656 5.393185.3115979 8.082409.0357916l.330539-.0357916c.054739-2.3699693-.112285-4.8101182.430893-7.1007844.290537-1.2274433 2.348158-1.2863943 3.890672-1.754493 2.759402-.8372441 5.38336-2.0885486 7.79117-3.6858391 0 0 .820382-.5235407 1.674449.0912337 1.761469 1.4688616 3.468902 2.9889544 5.125104 4.5637873l.037897.0357917c2.111658-1.6864187 4.038046-3.5967108 5.741268-5.6894701l.208429-.259665c-1.636553-1.713087-3.479429-3.3195009-4.716669-5.3252373-.661779-1.073048.749502-2.5664725 1.510934-3.9918227 1.357946-2.5398041 2.329211-5.2831295 2.902565-8.1155831 0 0 .210535-.9502334 1.24917-1.1193666 2.274471-.2063283 4.560873-.338968 6.850783-.3972172l.051932-.0014036c.298959-2.682269.311591-5.3947153.036493-8.0825986l-.036493-.3312483c-2.36851-.0540384-4.807899.1122875-7.099915-.4302017-1.2611-.2989656-1.315137-2.4766424-1.807086-4.063406-.355101-1.1460348-.781082-2.2696122-1.273732-3.3637141-.666691-1.4793885-1.459704-2.8998261-2.359387-4.2549965 0 0-.523528-.820401.091934-1.67519 1.464616-1.7558967 2.985375-3.4640711 4.562978-5.1252252l.036493-.037897c-1.684976-2.1081989-3.594521-4.0353341-5.689337-5.7407013l-.26036-.2084338c-1.713749 1.6365911-3.320125 3.4795107-5.324411 4.7160774-1.046355.6456534-2.508866-.7067098-3.833126-1.4253502-1.10741-.6007384-2.253418-1.1298935-3.428901-1.5832545-1.569883-.605651-3.191698-1.0702408-4.845094-1.4042963 0 0-.950913-.2105392-1.120042-1.24919905-.030878-.33756446-.059651-.67442713-.087722-1.0119916-.156498-1.94257472-.259659-3.88936022-.309486-5.83895292 0 0-2.171309-.29615843-4.376304-.29124585zm.277203 20.35211952c7.702044.0736887 14.960562 5.987734 16.432196 13.656974 1.439352 7.500107-2.930637 15.7174507-9.987042 18.7035979-7.847312 3.3216063-17.985938-.442834-21.734149-8.2166419-4.790355-9.9360451 2.6008-23.8688255 14.854593-24.1411228.144567-.0021054.289835-.003509.434402-.0028072zm-.200007 2.8071889c-7.935035.0757941-14.942316 7.8860955-13.808238 15.9995732.929158 6.6439143 7.235359 12.1144237 13.990701 12.0716141 8.200307-.051933 15.368997-8.517713 13.658758-16.8634856-1.282855-6.2621366-7.233254-11.2287556-13.841221-11.2077017z" fill="#fff" fill-rule="evenodd" transform="translate(-407)"/></svg>